# xmcd
#
# Track frame offsets:
#	150
#	10726
#	23169
#	35136
#	48230
#	59970
#	73584
#	86629
#	99388
#	112801
#	124658
#	138299
#	149725
#	162506
#	172984
#	186731
#
# Disc length: 2632 seconds
#
# Revision: 0
# Processed by: cddbd v1.5.2PL0 Copyright (c) Steve Scherf et al.
# Submitted via: audiograbber 1.83.01
#
DISCID=e90a4610
DTITLE=Various Artist - Rhythm and Blues - CD 3
DYEAR=2006
DGENRE=Blues
TTITLE0=Chuck Berry - Maybellene
TTITLE1=The Drifters - What' Cha Gonna Do
TTITLE2=The Platters - The Great Pretender
TTITLE3=Ruth Brown - Mama, He Treats Your Daughter Mean
TTITLE4=Johnny Otis - All Night Long
TTITLE5=Guitar Slim - Things That I Used To Do
TTITLE6=Chuck Willis - I Feel So Bad
TTITLE7=Willie Mae "Big Mama" Thorton - Hound Dog
TTITLE8=Jimmy Forrest - Night Train
TTITLE9=Little Walter - My Babe
TTITLE10=Ray Charles - A Fool For You
TTITLE11=Smiley Lewis - I Hear You Knocking
TTITLE12=Sonny Thompson and Lula Reed - I'll Drown In My Own Tears
TTITLE13=The Dominoes - Have Mercy Baby
TTITLE14=The Orioles - Crying In The Chapel
TTITLE15=Little Richard - Tutti Frutti
EXTD=
EXTT0=
EXTT1=
EXTT2=
EXTT3=
EXTT4=
EXTT5=
EXTT6=
EXTT7=
EXTT8=
EXTT9=
EXTT10=
EXTT11=
EXTT12=
EXTT13=
EXTT14=
EXTT15=
PLAYORDER=
